<?xml version="1.0" encoding="utf-8" standalone="no"?>
<!DOCTYPE svg PUBLIC "-//W3C//DTD SVG 1.1//EN"
  "http://www.w3.org/Graphics/SVG/1.1/DTD/svg11.dtd">
<svg xmlns:xlink="http://www.w3.org/1999/xlink" width="460.8pt" height="345.6pt" viewBox="0 0 460.8 345.6" xmlns="http://www.w3.org/2000/svg" version="1.1">
 <metadata>
  <rdf:RDF xmlns:dc="http://purl.org/dc/elements/1.1/" xmlns:cc="http://creativecommons.org/ns#" xmlns:rdf="http://www.w3.org/1999/02/22-rdf-syntax-ns#">
   <cc:Work>
    <dc:type rdf:resource="http://purl.org/dc/dcmitype/StillImage"/>
    <dc:date>2025-03-20T21:17:50.082994</dc:date>
    <dc:format>image/svg+xml</dc:format>
    <dc:creator>
     <cc:Agent>
      <dc:title>Matplotlib v3.9.2, https://matplotlib.org/</dc:title>
     </cc:Agent>
    </dc:creator>
   </cc:Work>
  </rdf:RDF>
 </metadata>
 <defs>
  <style type="text/css">*{stroke-linejoin: round; stroke-linecap: butt}</style>
 </defs>
 <g id="figure_1">
  <g id="patch_1">
   <path d="M 0 345.6 
L 460.8 345.6 
L 460.8 0 
L 0 0 
z
" style="fill: #ffffff"/>
  </g>
  <g id="axes_1">
   <g id="patch_2">
    <path d="M 57.6 307.584 
L 414.72 307.584 
L 414.72 41.472 
L 57.6 41.472 
z
" style="fill: #ffffff"/>
   </g>
   <g id="matplotlib.axis_1">
    <g id="xtick_1">
     <g id="line2d_1">
      <defs>
       <path id="m76672abf3e" d="M 0 0 
L 0 3.5 
" style="stroke: #000000; stroke-width: 0.8"/>
      </defs>
      <g>
       <use xlink:href="#m76672abf3e" x="73.832727" y="307.584" style="stroke: #000000; stroke-width: 0.8"/>
      </g>
     </g>
     <g id="text_1">
      <!-- 0 -->
      <g transform="translate(70.651477 322.182437) scale(0.1 -0.1)">
       <defs>
        <path id="DejaVuSans-30" d="M 2034 4250 
Q 1547 4250 1301 3770 
Q 1056 3291 1056 2328 
Q 1056 1369 1301 889 
Q 1547 409 2034 409 
Q 2525 409 2770 889 
Q 3016 1369 3016 2328 
Q 3016 3291 2770 3770 
Q 2525 4250 2034 4250 
z
M 2034 4750 
Q 2819 4750 3233 4129 
Q 3647 3509 3647 2328 
Q 3647 1150 3233 529 
Q 2819 -91 2034 -91 
Q 1250 -91 836 529 
Q 422 1150 422 2328 
Q 422 3509 836 4129 
Q 1250 4750 2034 4750 
z
" transform="scale(0.015625)"/>
       </defs>
       <use xlink:href="#DejaVuSans-30"/>
      </g>
     </g>
    </g>
    <g id="xtick_2">
     <g id="line2d_2">
      <g>
       <use xlink:href="#m76672abf3e" x="127.494636" y="307.584" style="stroke: #000000; stroke-width: 0.8"/>
      </g>
     </g>
     <g id="text_2">
      <!-- 20 -->
      <g transform="translate(121.132136 322.182437) scale(0.1 -0.1)">
       <defs>
        <path id="DejaVuSans-32" d="M 1228 531 
L 3431 531 
L 3431 0 
L 469 0 
L 469 531 
Q 828 903 1448 1529 
Q 2069 2156 2228 2338 
Q 2531 2678 2651 2914 
Q 2772 3150 2772 3378 
Q 2772 3750 2511 3984 
Q 2250 4219 1831 4219 
Q 1534 4219 1204 4116 
Q 875 4013 500 3803 
L 500 4441 
Q 881 4594 1212 4672 
Q 1544 4750 1819 4750 
Q 2544 4750 2975 4387 
Q 3406 4025 3406 3419 
Q 3406 3131 3298 2873 
Q 3191 2616 2906 2266 
Q 2828 2175 2409 1742 
Q 1991 1309 1228 531 
z
" transform="scale(0.015625)"/>
       </defs>
       <use xlink:href="#DejaVuSans-32"/>
       <use xlink:href="#DejaVuSans-30" x="63.623047"/>
      </g>
     </g>
    </g>
    <g id="xtick_3">
     <g id="line2d_3">
      <g>
       <use xlink:href="#m76672abf3e" x="181.156544" y="307.584" style="stroke: #000000; stroke-width: 0.8"/>
      </g>
     </g>
     <g id="text_3">
      <!-- 40 -->
      <g transform="translate(174.794044 322.182437) scale(0.1 -0.1)">
       <defs>
        <path id="DejaVuSans-34" d="M 2419 4116 
L 825 1625 
L 2419 1625 
L 2419 4116 
z
M 2253 4666 
L 3047 4666 
L 3047 1625 
L 3713 1625 
L 3713 1100 
L 3047 1100 
L 3047 0 
L 2419 0 
L 2419 1100 
L 313 1100 
L 313 1709 
L 2253 4666 
z
" transform="scale(0.015625)"/>
       </defs>
       <use xlink:href="#DejaVuSans-34"/>
       <use xlink:href="#DejaVuSans-30" x="63.623047"/>
      </g>
     </g>
    </g>
    <g id="xtick_4">
     <g id="line2d_4">
      <g>
       <use xlink:href="#m76672abf3e" x="234.818452" y="307.584" style="stroke: #000000; stroke-width: 0.8"/>
      </g>
     </g>
     <g id="text_4">
      <!-- 60 -->
      <g transform="translate(228.455952 322.182437) scale(0.1 -0.1)">
       <defs>
        <path id="DejaVuSans-36" d="M 2113 2584 
Q 1688 2584 1439 2293 
Q 1191 2003 1191 1497 
Q 1191 994 1439 701 
Q 1688 409 2113 409 
Q 2538 409 2786 701 
Q 3034 994 3034 1497 
Q 3034 2003 2786 2293 
Q 2538 2584 2113 2584 
z
M 3366 4563 
L 3366 3988 
Q 3128 4100 2886 4159 
Q 2644 4219 2406 4219 
Q 1781 4219 1451 3797 
Q 1122 3375 1075 2522 
Q 1259 2794 1537 2939 
Q 1816 3084 2150 3084 
Q 2853 3084 3261 2657 
Q 3669 2231 3669 1497 
Q 3669 778 3244 343 
Q 2819 -91 2113 -91 
Q 1303 -91 875 529 
Q 447 1150 447 2328 
Q 447 3434 972 4092 
Q 1497 4750 2381 4750 
Q 2619 4750 2861 4703 
Q 3103 4656 3366 4563 
z
" transform="scale(0.015625)"/>
       </defs>
       <use xlink:href="#DejaVuSans-36"/>
       <use xlink:href="#DejaVuSans-30" x="63.623047"/>
      </g>
     </g>
    </g>
    <g id="xtick_5">
     <g id="line2d_5">
      <g>
       <use xlink:href="#m76672abf3e" x="288.480361" y="307.584" style="stroke: #000000; stroke-width: 0.8"/>
      </g>
     </g>
     <g id="text_5">
      <!-- 80 -->
      <g transform="translate(282.117861 322.182437) scale(0.1 -0.1)">
       <defs>
        <path id="DejaVuSans-38" d="M 2034 2216 
Q 1584 2216 1326 1975 
Q 1069 1734 1069 1313 
Q 1069 891 1326 650 
Q 1584 409 2034 409 
Q 2484 409 2743 651 
Q 3003 894 3003 1313 
Q 3003 1734 2745 1975 
Q 2488 2216 2034 2216 
z
M 1403 2484 
Q 997 2584 770 2862 
Q 544 3141 544 3541 
Q 544 4100 942 4425 
Q 1341 4750 2034 4750 
Q 2731 4750 3128 4425 
Q 3525 4100 3525 3541 
Q 3525 3141 3298 2862 
Q 3072 2584 2669 2484 
Q 3125 2378 3379 2068 
Q 3634 1759 3634 1313 
Q 3634 634 3220 271 
Q 2806 -91 2034 -91 
Q 1263 -91 848 271 
Q 434 634 434 1313 
Q 434 1759 690 2068 
Q 947 2378 1403 2484 
z
M 1172 3481 
Q 1172 3119 1398 2916 
Q 1625 2713 2034 2713 
Q 2441 2713 2670 2916 
Q 2900 3119 2900 3481 
Q 2900 3844 2670 4047 
Q 2441 4250 2034 4250 
Q 1625 4250 1398 4047 
Q 1172 3844 1172 3481 
z
" transform="scale(0.015625)"/>
       </defs>
       <use xlink:href="#DejaVuSans-38"/>
       <use xlink:href="#DejaVuSans-30" x="63.623047"/>
      </g>
     </g>
    </g>
    <g id="xtick_6">
     <g id="line2d_6">
      <g>
       <use xlink:href="#m76672abf3e" x="342.142269" y="307.584" style="stroke: #000000; stroke-width: 0.8"/>
      </g>
     </g>
     <g id="text_6">
      <!-- 100 -->
      <g transform="translate(332.598519 322.182437) scale(0.1 -0.1)">
       <defs>
        <path id="DejaVuSans-31" d="M 794 531 
L 1825 531 
L 1825 4091 
L 703 3866 
L 703 4441 
L 1819 4666 
L 2450 4666 
L 2450 531 
L 3481 531 
L 3481 0 
L 794 0 
L 794 531 
z
" transform="scale(0.015625)"/>
       </defs>
       <use xlink:href="#DejaVuSans-31"/>
       <use xlink:href="#DejaVuSans-30" x="63.623047"/>
       <use xlink:href="#DejaVuSans-30" x="127.246094"/>
      </g>
     </g>
    </g>
    <g id="xtick_7">
     <g id="line2d_7">
      <g>
       <use xlink:href="#m76672abf3e" x="395.804177" y="307.584" style="stroke: #000000; stroke-width: 0.8"/>
      </g>
     </g>
     <g id="text_7">
      <!-- 120 -->
      <g transform="translate(386.260427 322.182437) scale(0.1 -0.1)">
       <use xlink:href="#DejaVuSans-31"/>
       <use xlink:href="#DejaVuSans-32" x="63.623047"/>
       <use xlink:href="#DejaVuSans-30" x="127.246094"/>
      </g>
     </g>
    </g>
   </g>
   <g id="matplotlib.axis_2">
    <g id="ytick_1">
     <g id="line2d_8">
      <defs>
       <path id="m2353a63391" d="M 0 0 
L -3.5 0 
" style="stroke: #000000; stroke-width: 0.8"/>
      </defs>
      <g>
       <use xlink:href="#m2353a63391" x="57.6" y="276.256926" style="stroke: #000000; stroke-width: 0.8"/>
      </g>
     </g>
     <g id="text_8">
      <!-- −40 -->
      <g transform="translate(29.495313 280.056145) scale(0.1 -0.1)">
       <defs>
        <path id="DejaVuSans-2212" d="M 678 2272 
L 4684 2272 
L 4684 1741 
L 678 1741 
L 678 2272 
z
" transform="scale(0.015625)"/>
       </defs>
       <use xlink:href="#DejaVuSans-2212"/>
       <use xlink:href="#DejaVuSans-34" x="83.789062"/>
       <use xlink:href="#DejaVuSans-30" x="147.412109"/>
      </g>
     </g>
    </g>
    <g id="ytick_2">
     <g id="line2d_9">
      <g>
       <use xlink:href="#m2353a63391" x="57.6" y="230.194474" style="stroke: #000000; stroke-width: 0.8"/>
      </g>
     </g>
     <g id="text_9">
      <!-- −20 -->
      <g transform="translate(29.495313 233.993692) scale(0.1 -0.1)">
       <use xlink:href="#DejaVuSans-2212"/>
       <use xlink:href="#DejaVuSans-32" x="83.789062"/>
       <use xlink:href="#DejaVuSans-30" x="147.412109"/>
      </g>
     </g>
    </g>
    <g id="ytick_3">
     <g id="line2d_10">
      <g>
       <use xlink:href="#m2353a63391" x="57.6" y="184.132021" style="stroke: #000000; stroke-width: 0.8"/>
      </g>
     </g>
     <g id="text_10">
      <!-- 0 -->
      <g transform="translate(44.2375 187.93124) scale(0.1 -0.1)">
       <use xlink:href="#DejaVuSans-30"/>
      </g>
     </g>
    </g>
    <g id="ytick_4">
     <g id="line2d_11">
      <g>
       <use xlink:href="#m2353a63391" x="57.6" y="138.069569" style="stroke: #000000; stroke-width: 0.8"/>
      </g>
     </g>
     <g id="text_11">
      <!-- 20 -->
      <g transform="translate(37.875 141.868788) scale(0.1 -0.1)">
       <use xlink:href="#DejaVuSans-32"/>
       <use xlink:href="#DejaVuSans-30" x="63.623047"/>
      </g>
     </g>
    </g>
    <g id="ytick_5">
     <g id="line2d_12">
      <g>
       <use xlink:href="#m2353a63391" x="57.6" y="92.007117" style="stroke: #000000; stroke-width: 0.8"/>
      </g>
     </g>
     <g id="text_12">
      <!-- 40 -->
      <g transform="translate(37.875 95.806335) scale(0.1 -0.1)">
       <use xlink:href="#DejaVuSans-34"/>
       <use xlink:href="#DejaVuSans-30" x="63.623047"/>
      </g>
     </g>
    </g>
    <g id="ytick_6">
     <g id="line2d_13">
      <g>
       <use xlink:href="#m2353a63391" x="57.6" y="45.944664" style="stroke: #000000; stroke-width: 0.8"/>
      </g>
     </g>
     <g id="text_13">
      <!-- 60 -->
      <g transform="translate(37.875 49.743883) scale(0.1 -0.1)">
       <use xlink:href="#DejaVuSans-36"/>
       <use xlink:href="#DejaVuSans-30" x="63.623047"/>
      </g>
     </g>
    </g>
   </g>
   <g id="line2d_14">
    <path d="M 73.832727 234.869813 
L 76.515823 235.008 
L 79.198918 235.169219 
L 81.882014 235.3765 
L 84.565109 235.537718 
L 87.248204 235.837124 
L 89.9313 236.435936 
L 92.614395 237.472341 
L 95.297491 239.176652 
L 97.980586 241.733118 
L 100.663681 244.243522 
L 103.346777 247.053331 
L 106.029872 249.84011 
L 108.712968 252.811138 
L 111.396063 255.459729 
L 114.079159 258.016195 
L 116.762254 260.18113 
L 119.445349 262.369097 
L 122.128445 264.395845 
L 124.81154 266.698967 
L 127.494636 269.623933 
L 130.177731 272.963461 
L 132.860826 276.072676 
L 135.543922 278.76733 
L 138.227017 281.139546 
L 140.910113 282.751732 
L 143.593208 283.857231 
L 146.276304 284.59423 
L 148.959399 285.100917 
L 151.642494 285.146979 
L 154.32559 285.123948 
L 157.008685 285.239104 
L 159.691781 285.976104 
L 162.374876 287.012509 
L 165.057971 288.555601 
L 167.741067 290.167787 
L 170.424162 291.687848 
L 173.107258 293.207909 
L 175.790353 294.474626 
L 178.473449 295.326781 
L 181.156544 295.488 
L 183.839639 294.958282 
L 186.522735 294.313407 
L 189.20583 294.083095 
L 191.888926 293.783689 
L 194.572021 292.793347 
L 197.255116 291.319348 
L 199.938212 289.407756 
L 202.621307 287.21979 
L 205.304403 284.985761 
L 207.987498 282.406264 
L 210.670594 279.274017 
L 213.353689 275.95752 
L 216.036784 273.147711 
L 218.71988 269.693027 
L 221.402975 266.583811 
L 224.086071 263.405502 
L 226.769166 260.434474 
L 229.452261 256.841602 
L 232.135357 253.962699 
L 234.818452 250.761359 
L 237.501548 247.490925 
L 240.184643 244.496865 
L 242.867739 241.525837 
L 245.550834 238.57784 
L 248.233929 236.021374 
L 250.917025 232.93519 
L 253.60012 229.75688 
L 256.283216 226.463415 
L 258.966311 222.525075 
L 261.649406 217.941861 
L 264.332502 213.496835 
L 267.015597 208.729371 
L 269.698693 203.501283 
L 272.381788 197.536195 
L 275.064884 191.640201 
L 277.747979 186.158769 
L 280.431074 180.078526 
L 283.11417 173.76797 
L 285.797265 167.895007 
L 288.480361 161.95295 
L 291.163456 155.918769 
L 293.846551 150.1149 
L 296.529647 143.758282 
L 299.212742 138.023506 
L 301.895838 133.094824 
L 304.578933 129.363765 
L 307.262029 125.955144 
L 309.945124 123.145334 
L 312.628219 121.671336 
L 315.311315 120.588868 
L 317.99441 121.049493 
L 320.677506 121.049493 
L 323.360601 120.680993 
L 326.043696 119.552463 
L 328.726792 117.61784 
L 331.409887 115.291686 
L 334.092983 113.080688 
L 336.776078 110.961816 
L 339.459174 109.34963 
L 342.142269 107.783506 
L 344.825364 106.194352 
L 347.50846 103.868198 
L 350.191555 100.966264 
L 352.874651 96.866705 
L 355.557746 92.744116 
L 358.240841 87.585121 
L 360.923937 82.978876 
L 363.607032 78.856286 
L 366.290128 75.516759 
L 368.973223 72.591793 
L 371.656319 70.334733 
L 374.339414 67.363704 
L 377.022509 63.955083 
L 379.705605 60.500399 
L 382.3887 57.391184 
L 385.071796 54.949874 
L 387.754891 53.729219 
L 390.437986 53.568 
L 393.121082 54.581374 
L 395.804177 56.147497 
L 398.487273 58.726995 
" clip-path="url(#pdf97f80446)" style="fill: none; stroke: #1f77b4; stroke-width: 1.5; stroke-linecap: square"/>
   </g>
   <g id="line2d_15">
    <path d="M 73.832727 259.0526 
L 76.515823 259.121694 
L 79.198918 259.098663 
L 81.882014 259.098663 
L 84.565109 258.914413 
L 87.248204 258.822288 
L 89.9313 258.776225 
L 92.614395 258.661069 
L 95.297491 258.361663 
L 97.980586 257.92407 
L 100.663681 257.440414 
L 103.346777 256.887665 
L 106.029872 256.265822 
L 108.712968 255.690041 
L 111.396063 254.999104 
L 114.079159 254.239074 
L 116.762254 253.617231 
L 119.445349 252.811138 
L 122.128445 252.028076 
L 124.81154 251.198952 
L 127.494636 250.300734 
L 130.177731 249.747985 
L 132.860826 249.563735 
L 135.543922 249.632829 
L 138.227017 250.024359 
L 140.910113 250.646203 
L 143.593208 251.360171 
L 146.276304 251.958982 
L 148.959399 252.09717 
L 151.642494 251.91292 
L 154.32559 251.659577 
L 157.008685 251.15289 
L 159.691781 250.554078 
L 162.374876 249.909203 
L 165.057971 249.172204 
L 167.741067 248.273986 
L 170.424162 246.431488 
L 173.107258 245.14174 
L 175.790353 243.483491 
L 178.473449 241.640993 
L 181.156544 239.453027 
L 183.839639 236.873529 
L 186.522735 234.478282 
L 189.20583 232.520628 
L 191.888926 230.862379 
L 194.572021 229.273225 
L 197.255116 227.730133 
L 199.938212 226.348259 
L 202.621307 224.851229 
L 205.304403 223.308137 
L 207.987498 221.718982 
L 210.670594 219.876484 
L 213.353689 218.126111 
L 216.036784 216.191488 
L 218.71988 213.911397 
L 221.402975 211.792524 
L 224.086071 210.134276 
L 226.769166 209.028777 
L 229.452261 207.96934 
L 232.135357 207.002029 
L 234.818452 205.965624 
L 237.501548 204.929219 
L 240.184643 204.00797 
L 242.867739 203.08672 
L 245.550834 202.211534 
L 248.233929 201.704847 
L 250.917025 201.244222 
L 253.60012 200.82966 
L 256.283216 200.507223 
L 258.966311 199.747193 
L 261.649406 198.872006 
L 264.332502 197.766507 
L 267.015597 196.799196 
L 269.698693 195.739759 
L 272.381788 194.473042 
L 275.064884 193.367543 
L 277.747979 192.538419 
L 280.431074 191.317764 
L 283.11417 190.465609 
L 285.797265 189.475266 
L 288.480361 188.600079 
L 291.163456 187.517612 
L 293.846551 185.836332 
L 296.529647 183.602303 
L 299.212742 181.437368 
L 301.895838 179.088183 
L 304.578933 176.831123 
L 307.262029 174.528 
L 309.945124 172.27094 
L 312.628219 170.681785 
L 315.311315 169.299912 
L 317.99441 168.539881 
L 320.677506 167.434382 
L 323.360601 166.720414 
L 326.043696 165.845228 
L 328.726792 164.624573 
L 331.409887 162.943293 
L 334.092983 161.100795 
L 336.776078 159.189203 
L 339.459174 157.484893 
L 342.142269 155.458145 
L 344.825364 153.316241 
L 347.50846 151.42768 
L 350.191555 149.907619 
L 352.874651 148.157246 
L 355.557746 146.314748 
L 358.240841 143.9195 
L 360.923937 141.455159 
L 363.607032 139.175068 
L 366.290128 136.825883 
L 368.973223 134.15426 
L 371.656319 132.173575 
L 374.339414 130.123796 
L 377.022509 128.027954 
L 379.705605 126.024238 
L 382.3887 124.18174 
L 385.071796 122.753804 
L 387.754891 121.717398 
L 390.437986 120.704024 
L 393.121082 119.782775 
L 395.804177 119.322151 
L 398.487273 118.976682 
" clip-path="url(#pdf97f80446)" style="fill: none; stroke: #ff7f0e; stroke-width: 1.5; stroke-linecap: square"/>
   </g>
   <g id="line2d_16">
    <path d="M 73.832727 282.014733 
L 76.515823 282.037764 
L 79.198918 282.037764 
L 81.882014 282.083826 
L 84.565109 282.106858 
L 87.248204 282.129889 
L 89.9313 282.060795 
L 92.614395 281.899577 
L 95.297491 281.692296 
L 97.980586 281.508046 
L 100.663681 281.39289 
L 103.346777 281.323796 
L 106.029872 281.300765 
L 108.712968 281.346827 
L 111.396063 281.485014 
L 114.079159 281.738358 
L 116.762254 281.991701 
L 119.445349 282.15292 
L 122.128445 282.014733 
L 124.81154 281.577139 
L 127.494636 280.701953 
L 130.177731 279.458267 
L 132.860826 277.984268 
L 135.543922 276.233895 
L 138.227017 274.115022 
L 140.910113 272.088274 
L 143.593208 269.785152 
L 146.276304 267.528091 
L 148.959399 264.741313 
L 151.642494 261.954535 
L 154.32559 259.029569 
L 157.008685 256.127634 
L 159.691781 252.949325 
L 162.374876 250.669234 
L 165.057971 248.872798 
L 167.741067 247.606081 
L 170.424162 246.385426 
L 173.107258 245.302958 
L 175.790353 243.921085 
L 178.473449 242.239805 
L 181.156544 240.535494 
L 183.839639 238.900277 
L 186.522735 237.518404 
L 189.20583 236.389874 
L 191.888926 235.675906 
L 194.572021 235.261343 
L 197.255116 235.031031 
L 199.938212 234.846781 
L 202.621307 234.685563 
L 205.304403 234.432219 
L 207.987498 234.06372 
L 210.670594 233.626126 
L 213.353689 233.257627 
L 216.036784 232.93519 
L 218.71988 232.543659 
L 221.402975 231.852722 
L 224.086071 230.862379 
L 226.769166 229.595662 
L 229.452261 227.983476 
L 232.135357 226.37129 
L 234.818452 224.666979 
L 237.501548 222.893575 
L 240.184643 221.097139 
L 242.867739 219.346766 
L 245.550834 217.550331 
L 248.233929 215.869051 
L 250.917025 213.727147 
L 253.60012 211.608274 
L 256.283216 209.558495 
L 258.966311 207.117185 
L 261.649406 204.560719 
L 264.332502 202.165471 
L 267.015597 199.724161 
L 269.698693 197.282851 
L 272.381788 194.680323 
L 275.064884 192.3772 
L 277.747979 190.419546 
L 280.431074 188.277642 
L 283.11417 186.204832 
L 285.797265 184.385365 
L 288.480361 182.588929 
L 291.163456 180.861587 
L 293.846551 179.22637 
L 296.529647 177.545091 
L 299.212742 176.094123 
L 301.895838 174.643156 
L 304.578933 173.330376 
L 307.262029 171.764253 
L 309.945124 169.898724 
L 312.628219 168.263506 
L 315.311315 166.25979 
L 317.99441 164.39426 
L 320.677506 162.091138 
L 323.360601 160.110452 
L 326.043696 158.290986 
L 328.726792 156.6788 
L 331.409887 155.18177 
L 334.092983 153.753834 
L 336.776078 152.487117 
L 339.459174 151.42768 
L 342.142269 150.506431 
L 344.825364 149.400932 
L 347.50846 148.364527 
L 350.191555 147.420247 
L 352.874651 146.475966 
L 355.557746 145.78503 
L 358.240841 145.117124 
L 360.923937 144.6565 
L 363.607032 144.403156 
L 366.290128 144.264969 
L 368.973223 144.288 
L 371.656319 144.449219 
L 374.339414 144.725593 
L 377.022509 145.001968 
L 379.705605 145.255312 
L 382.3887 145.439561 
L 385.071796 145.577749 
L 387.754891 145.761998 
L 390.437986 146.107467 
L 393.121082 146.54506 
L 395.804177 146.867497 
L 398.487273 147.09781 
" clip-path="url(#pdf97f80446)" style="fill: none; stroke: #2ca02c; stroke-width: 1.5; stroke-linecap: square"/>
   </g>
   <g id="patch_3">
    <path d="M 57.6 307.584 
L 57.6 41.472 
" style="fill: none; stroke: #000000; stroke-width: 0.8; stroke-linejoin: miter; stroke-linecap: square"/>
   </g>
   <g id="patch_4">
    <path d="M 414.72 307.584 
L 414.72 41.472 
" style="fill: none; stroke: #000000; stroke-width: 0.8; stroke-linejoin: miter; stroke-linecap: square"/>
   </g>
   <g id="patch_5">
    <path d="M 57.6 307.584 
L 414.72 307.584 
" style="fill: none; stroke: #000000; stroke-width: 0.8; stroke-linejoin: miter; stroke-linecap: square"/>
   </g>
   <g id="patch_6">
    <path d="M 57.6 41.472 
L 414.72 41.472 
" style="fill: none; stroke: #000000; stroke-width: 0.8; stroke-linejoin: miter; stroke-linecap: square"/>
   </g>
   <g id="legend_1">
    <g id="patch_7">
     <path d="M 64.6 93.506375 
L 121.482812 93.506375 
Q 123.482812 93.506375 123.482812 91.506375 
L 123.482812 48.472 
Q 123.482812 46.472 121.482812 46.472 
L 64.6 46.472 
Q 62.6 46.472 62.6 48.472 
L 62.6 91.506375 
Q 62.6 93.506375 64.6 93.506375 
z
" style="fill: #ffffff; opacity: 0.8; stroke: #cccccc; stroke-linejoin: miter"/>
    </g>
    <g id="line2d_17">
     <path d="M 66.6 54.570438 
L 76.6 54.570438 
L 86.6 54.570438 
" style="fill: none; stroke: #1f77b4; stroke-width: 1.5; stroke-linecap: square"/>
    </g>
    <g id="text_14">
     <!-- roll -->
     <g transform="translate(94.6 58.070438) scale(0.1 -0.1)">
      <defs>
       <path id="DejaVuSans-72" d="M 2631 2963 
Q 2534 3019 2420 3045 
Q 2306 3072 2169 3072 
Q 1681 3072 1420 2755 
Q 1159 2438 1159 1844 
L 1159 0 
L 581 0 
L 581 3500 
L 1159 3500 
L 1159 2956 
Q 1341 3275 1631 3429 
Q 1922 3584 2338 3584 
Q 2397 3584 2469 3576 
Q 2541 3569 2628 3553 
L 2631 2963 
z
" transform="scale(0.015625)"/>
       <path id="DejaVuSans-6f" d="M 1959 3097 
Q 1497 3097 1228 2736 
Q 959 2375 959 1747 
Q 959 1119 1226 758 
Q 1494 397 1959 397 
Q 2419 397 2687 759 
Q 2956 1122 2956 1747 
Q 2956 2369 2687 2733 
Q 2419 3097 1959 3097 
z
M 1959 3584 
Q 2709 3584 3137 3096 
Q 3566 2609 3566 1747 
Q 3566 888 3137 398 
Q 2709 -91 1959 -91 
Q 1206 -91 779 398 
Q 353 888 353 1747 
Q 353 2609 779 3096 
Q 1206 3584 1959 3584 
z
" transform="scale(0.015625)"/>
       <path id="DejaVuSans-6c" d="M 603 4863 
L 1178 4863 
L 1178 0 
L 603 0 
L 603 4863 
z
" transform="scale(0.015625)"/>
      </defs>
      <use xlink:href="#DejaVuSans-72"/>
      <use xlink:href="#DejaVuSans-6f" x="38.863281"/>
      <use xlink:href="#DejaVuSans-6c" x="100.044922"/>
      <use xlink:href="#DejaVuSans-6c" x="127.828125"/>
     </g>
    </g>
    <g id="line2d_18">
     <path d="M 66.6 69.248563 
L 76.6 69.248563 
L 86.6 69.248563 
" style="fill: none; stroke: #ff7f0e; stroke-width: 1.5; stroke-linecap: square"/>
    </g>
    <g id="text_15">
     <!-- pitch -->
     <g transform="translate(94.6 72.748563) scale(0.1 -0.1)">
      <defs>
       <path id="DejaVuSans-70" d="M 1159 525 
L 1159 -1331 
L 581 -1331 
L 581 3500 
L 1159 3500 
L 1159 2969 
Q 1341 3281 1617 3432 
Q 1894 3584 2278 3584 
Q 2916 3584 3314 3078 
Q 3713 2572 3713 1747 
Q 3713 922 3314 415 
Q 2916 -91 2278 -91 
Q 1894 -91 1617 61 
Q 1341 213 1159 525 
z
M 3116 1747 
Q 3116 2381 2855 2742 
Q 2594 3103 2138 3103 
Q 1681 3103 1420 2742 
Q 1159 2381 1159 1747 
Q 1159 1113 1420 752 
Q 1681 391 2138 391 
Q 2594 391 2855 752 
Q 3116 1113 3116 1747 
z
" transform="scale(0.015625)"/>
       <path id="DejaVuSans-69" d="M 603 3500 
L 1178 3500 
L 1178 0 
L 603 0 
L 603 3500 
z
M 603 4863 
L 1178 4863 
L 1178 4134 
L 603 4134 
L 603 4863 
z
" transform="scale(0.015625)"/>
       <path id="DejaVuSans-74" d="M 1172 4494 
L 1172 3500 
L 2356 3500 
L 2356 3053 
L 1172 3053 
L 1172 1153 
Q 1172 725 1289 603 
Q 1406 481 1766 481 
L 2356 481 
L 2356 0 
L 1766 0 
Q 1100 0 847 248 
Q 594 497 594 1153 
L 594 3053 
L 172 3053 
L 172 3500 
L 594 3500 
L 594 4494 
L 1172 4494 
z
" transform="scale(0.015625)"/>
       <path id="DejaVuSans-63" d="M 3122 3366 
L 3122 2828 
Q 2878 2963 2633 3030 
Q 2388 3097 2138 3097 
Q 1578 3097 1268 2742 
Q 959 2388 959 1747 
Q 959 1106 1268 751 
Q 1578 397 2138 397 
Q 2388 397 2633 464 
Q 2878 531 3122 666 
L 3122 134 
Q 2881 22 2623 -34 
Q 2366 -91 2075 -91 
Q 1284 -91 818 406 
Q 353 903 353 1747 
Q 353 2603 823 3093 
Q 1294 3584 2113 3584 
Q 2378 3584 2631 3529 
Q 2884 3475 3122 3366 
z
" transform="scale(0.015625)"/>
       <path id="DejaVuSans-68" d="M 3513 2113 
L 3513 0 
L 2938 0 
L 2938 2094 
Q 2938 2591 2744 2837 
Q 2550 3084 2163 3084 
Q 1697 3084 1428 2787 
Q 1159 2491 1159 1978 
L 1159 0 
L 581 0 
L 581 4863 
L 1159 4863 
L 1159 2956 
Q 1366 3272 1645 3428 
Q 1925 3584 2291 3584 
Q 2894 3584 3203 3211 
Q 3513 2838 3513 2113 
z
" transform="scale(0.015625)"/>
      </defs>
      <use xlink:href="#DejaVuSans-70"/>
      <use xlink:href="#DejaVuSans-69" x="63.476562"/>
      <use xlink:href="#DejaVuSans-74" x="91.259766"/>
      <use xlink:href="#DejaVuSans-63" x="130.46875"/>
      <use xlink:href="#DejaVuSans-68" x="185.449219"/>
     </g>
    </g>
    <g id="line2d_19">
     <path d="M 66.6 83.926688 
L 76.6 83.926688 
L 86.6 83.926688 
" style="fill: none; stroke: #2ca02c; stroke-width: 1.5; stroke-linecap: square"/>
    </g>
    <g id="text_16">
     <!-- yaw -->
     <g transform="translate(94.6 87.426688) scale(0.1 -0.1)">
      <defs>
       <path id="DejaVuSans-79" d="M 2059 -325 
Q 1816 -950 1584 -1140 
Q 1353 -1331 966 -1331 
L 506 -1331 
L 506 -850 
L 844 -850 
Q 1081 -850 1212 -737 
Q 1344 -625 1503 -206 
L 1606 56 
L 191 3500 
L 800 3500 
L 1894 763 
L 2988 3500 
L 3597 3500 
L 2059 -325 
z
" transform="scale(0.015625)"/>
       <path id="DejaVuSans-61" d="M 2194 1759 
Q 1497 1759 1228 1600 
Q 959 1441 959 1056 
Q 959 750 1161 570 
Q 1363 391 1709 391 
Q 2188 391 2477 730 
Q 2766 1069 2766 1631 
L 2766 1759 
L 2194 1759 
z
M 3341 1997 
L 3341 0 
L 2766 0 
L 2766 531 
Q 2569 213 2275 61 
Q 1981 -91 1556 -91 
Q 1019 -91 701 211 
Q 384 513 384 1019 
Q 384 1609 779 1909 
Q 1175 2209 1959 2209 
L 2766 2209 
L 2766 2266 
Q 2766 2663 2505 2880 
Q 2244 3097 1772 3097 
Q 1472 3097 1187 3025 
Q 903 2953 641 2809 
L 641 3341 
Q 956 3463 1253 3523 
Q 1550 3584 1831 3584 
Q 2591 3584 2966 3190 
Q 3341 2797 3341 1997 
z
" transform="scale(0.015625)"/>
       <path id="DejaVuSans-77" d="M 269 3500 
L 844 3500 
L 1563 769 
L 2278 3500 
L 2956 3500 
L 3675 769 
L 4391 3500 
L 4966 3500 
L 4050 0 
L 3372 0 
L 2619 2869 
L 1863 0 
L 1184 0 
L 269 3500 
z
" transform="scale(0.015625)"/>
      </defs>
      <use xlink:href="#DejaVuSans-79"/>
      <use xlink:href="#DejaVuSans-61" x="59.179688"/>
      <use xlink:href="#DejaVuSans-77" x="120.458984"/>
     </g>
    </g>
   </g>
  </g>
 </g>
 <defs>
  <clipPath id="pdf97f80446">
   <rect x="57.6" y="41.472" width="357.12" height="266.112"/>
  </clipPath>
 </defs>
</svg>
